<svg width="129" height="22" viewBox="0 0 129 22" fill="none" xmlns="http://www.w3.org/2000/svg">
<rect width="129" height="22" fill="#F5F5F5"/>
<g id="Lava Roasters" clip-path="url(#clip0_0_1)">
<rect width="1920" height="4803" transform="translate(-375 -4634)" fill="#F9F3EE"/>
<g id="footer">
<rect id="Rectangle 6" x="-375" y="-268" width="1920" height="437" fill="#CCB7A7" fill-opacity="0.25"/>
</g>
<g id="Group 44">
<g id="Group" opacity="0.81">
<path id="Vector" d="M20.9999 10.51C20.9979 8.42997 20.3809 6.40001 19.2269 4.68001C18.0719 2.95001 16.4309 1.61002 14.5129 0.810018C12.5939 0.020018 10.483 -0.19007 8.44696 0.21993C6.40996 0.61993 4.53994 1.62993 3.07294 3.08993C1.60494 4.55993 0.605928 6.42993 0.200928 8.46993C-0.203072 10.5099 0.00492704 12.62 0.799927 14.54C1.59493 16.45 2.94093 18.09 4.66693 19.25C6.39393 20.4 8.42394 21.02 10.4999 21.02C10.5619 21.02 10.6229 21.02 10.6849 21.02V12.8399H8.42896V10.1999H10.6849V8.26998C10.6389 7.80998 10.6939 7.34999 10.8459 6.90999C10.9969 6.47999 11.242 6.07996 11.564 5.74996C11.885 5.41996 12.274 5.15996 12.705 4.99996C13.135 4.82996 13.597 4.77001 14.056 4.80001C14.731 4.80001 15.4059 4.82998 16.0779 4.89998V7.24996H14.7C13.613 7.24996 13.4 7.76999 13.4 8.52999V10.1999H15.9999L15.6599 12.8299H13.4V20.6099C15.591 19.9799 17.5179 18.6499 18.8889 16.8299C20.2599 15.0099 21.0009 12.79 20.9999 10.51Z" fill="#3D3017"/>
</g>
<g id="Group_2" opacity="0.81">
<path id="Vector_2" d="M51.3656 3.81006H41.6335C41.1495 3.81006 40.6856 3.99997 40.3436 4.33997C40.0016 4.68997 39.8086 5.15 39.8086 5.63V15.37C39.8086 15.85 40.0016 16.31 40.3436 16.66C40.6856 17 41.1495 17.1899 41.6335 17.1899H51.3656C51.8486 17.1899 52.3126 17 52.6546 16.66C52.9976 16.31 53.1896 15.85 53.1906 15.37V5.63C53.1896 5.15 52.9976 4.68997 52.6546 4.33997C52.3126 3.99997 51.8486 3.81006 51.3656 3.81006ZM46.4996 14.76C45.6566 14.76 44.8335 14.51 44.1335 14.04C43.4335 13.57 42.8876 12.91 42.5656 12.13C42.2426 11.35 42.1586 10.5 42.3226 9.67004C42.4876 8.84004 42.8926 8.07999 43.4886 7.48999C44.0836 6.88999 44.8426 6.48995 45.6686 6.31995C46.4946 6.15995 47.3506 6.23995 48.1286 6.56995C48.9066 6.88995 49.5716 7.43 50.0396 8.13C50.5076 8.83 50.7576 9.66 50.7576 10.5C50.7556 11.63 50.3065 12.71 49.5085 13.51C48.7105 14.31 47.6276 14.76 46.4996 14.76ZM50.7576 7.45996C50.5166 7.45996 50.2816 7.39 50.0806 7.25C49.8806 7.12 49.7246 6.92996 49.6326 6.70996C49.5406 6.47996 49.5166 6.24 49.5636 6C49.6106 5.77 49.7265 5.55 49.8965 5.38C50.0665 5.21 50.2836 5.09005 50.5196 5.05005C50.7556 5.00005 51.0006 5.02 51.2226 5.12C51.4456 5.21 51.6356 5.36006 51.7686 5.56006C51.9026 5.76006 51.9745 5.99999 51.9745 6.23999C51.9745 6.55999 51.8456 6.86998 51.6176 7.09998C51.3896 7.32998 51.0796 7.45996 50.7576 7.45996Z" fill="#3D3017"/>
<path id="Vector_3" d="M46.4996 7.35986C45.8796 7.35986 45.2726 7.54989 44.7556 7.88989C44.2396 8.22989 43.8376 8.72993 43.5996 9.29993C43.3626 9.86993 43.3006 10.4999 43.4216 11.1099C43.5426 11.7199 43.8416 12.2798 44.2806 12.7198C44.7196 13.1598 45.2786 13.4598 45.8876 13.5798C46.4966 13.6998 47.1277 13.6399 47.7017 13.3999C48.2747 13.1599 48.7646 12.7599 49.1096 12.2399C49.4546 11.7299 49.6386 11.1199 49.6386 10.4999C49.6376 9.66988 49.3066 8.86991 48.7186 8.27991C48.1296 7.68991 47.3326 7.35986 46.4996 7.35986Z" fill="#3D3017"/>
<path id="Vector_4" d="M53.883 0H39.117C38.293 0.01 37.505 0.340044 36.922 0.920044C36.34 1.51004 36.009 2.29 36 3.12V17.88C36.009 18.71 36.34 19.49 36.922 20.08C37.505 20.66 38.293 20.99 39.117 21H53.883C54.707 20.99 55.495 20.66 56.078 20.08C56.66 19.49 56.991 18.71 57 17.88V3.12C56.991 2.29 56.66 1.51004 56.078 0.920044C55.495 0.340044 54.707 0.01 53.883 0ZM54.5 15.42C54.499 16.24 54.175 17.02 53.598 17.6C53.021 18.18 52.238 18.5 51.422 18.5H41.578C40.762 18.5 39.979 18.18 39.402 17.6C38.825 17.02 38.501 16.24 38.5 15.42V5.57996C38.501 4.75996 38.825 3.98002 39.402 3.40002C39.979 2.82002 40.762 2.5 41.578 2.5H51.422C52.238 2.5 53.021 2.82002 53.598 3.40002C54.175 3.98002 54.499 4.75996 54.5 5.57996V15.42Z" fill="#3D3017"/>
</g>
<path id="Vector_5" d="M92.2986 5.27002C92.1796 4.83002 91.9486 4.42999 91.6276 4.10999C91.3076 3.78999 90.9086 3.55994 90.4716 3.43994C88.8496 2.99994 82.3606 3 82.3606 3C82.3606 3 75.8726 3.00005 74.2506 3.43005C73.8136 3.55005 73.4166 3.78999 73.0976 4.10999C72.7776 4.42999 72.5466 4.83002 72.4266 5.27002C72.1316 6.92002 71.9886 8.59001 71.9986 10.26C71.9876 11.93 72.1306 13.6 72.4266 15.24C72.5446 15.68 72.7756 16.08 73.0966 16.4C73.4166 16.72 73.8156 16.9499 74.2536 17.0699C75.8926 17.5099 82.3646 17.51 82.3646 17.51C82.3646 17.51 88.8526 17.51 90.4746 17.09C90.9106 16.97 91.3086 16.74 91.6286 16.42C91.9486 16.1 92.1796 15.7 92.2986 15.26C92.5926 13.61 92.7356 11.95 92.7256 10.27C92.7446 8.60002 92.6016 6.92002 92.2986 5.27002ZM80.2986 13.36V7.15002L85.6986 10.26L80.2986 13.36Z" fill="#5F523C"/>
<g id="Group_3" opacity="0.81">
<path id="Vector_6" fill-rule="evenodd" clip-rule="evenodd" d="M118.529 0.000119096C116.449 -0.0098809 114.419 0.610129 112.689 1.76013C110.959 2.91013 109.609 4.55008 108.809 6.46008C108.009 8.38008 107.799 10.4901 108.199 12.5301C108.599 14.5701 109.599 16.4402 111.069 17.9202C112.529 19.3902 114.399 20.3902 116.439 20.8002C118.479 21.2002 120.589 21.0001 122.509 20.2001C124.429 19.4101 126.069 18.0601 127.229 16.3401C128.379 14.6101 128.999 12.5801 128.999 10.5001C128.999 7.72012 127.899 5.05009 125.929 3.09009C123.969 1.12009 121.309 0.0101191 118.529 0.000119096ZM119.359 13.3301C118.579 13.2801 118.269 12.8701 117.649 12.5101C117.329 14.2601 116.919 15.9101 115.729 16.7801C115.359 14.1601 116.249 12.2001 116.659 10.0901C115.929 8.91008 116.759 6.44017 118.269 7.05017C120.129 7.77017 116.659 11.5802 118.989 12.0502C121.479 12.5602 122.469 7.7701 120.959 6.2301C118.729 4.0201 114.529 6.18011 115.049 9.37011C115.209 10.1401 115.979 10.4001 115.409 11.4801C113.959 11.1701 113.549 10.0401 113.599 8.60009C113.689 7.48009 114.169 6.43012 114.959 5.63012C115.739 4.83012 116.779 4.33009 117.899 4.22009C120.539 3.91009 123.029 5.20016 123.339 7.67016C123.759 10.5002 122.149 13.5401 119.349 13.3301H119.359Z" fill="#3D3017"/>
</g>
</g>
</g>
<defs>
<clipPath id="clip0_0_1">
<rect width="1920" height="4803" fill="white" transform="translate(-375 -4634)"/>
</clipPath>
</defs>
</svg>
