<svg width="134" height="88" viewBox="0 0 134 88" fill="none" xmlns="http://www.w3.org/2000/svg">
<path d="M24.4883 24.5H30.4383V46.83H45.4883V49H24.4883V24.5ZM55.4116 49.35C52.9149 49.35 51.0366 48.895 49.7766 47.985C48.5399 47.0517 47.9216 45.745 47.9216 44.065C47.9216 42.2917 48.6566 40.9267 50.1266 39.97C51.5966 39.0133 53.7199 38.535 56.4966 38.535H61.0816V37.38C61.0816 36.0733 60.7199 35.07 59.9966 34.37C59.2732 33.67 58.2349 33.32 56.8816 33.32C55.5516 33.32 54.4899 33.6583 53.6966 34.335C52.9266 35.0117 52.4482 36.0033 52.2616 37.31H48.4116C48.6682 35.42 49.5666 33.985 51.1066 33.005C52.6466 32.0017 54.7349 31.5 57.3716 31.5C60.2649 31.5 62.4699 32.0367 63.9866 33.11C65.5032 34.1833 66.2616 35.735 66.2616 37.765V43.295C66.2616 45.4183 66.4366 47.32 66.7866 49H61.9566C61.7232 48.1133 61.5599 47.3317 61.4666 46.655C60.7899 47.6117 59.9149 48.3 58.8416 48.72C57.7916 49.14 56.6482 49.35 55.4116 49.35ZM56.4966 47.6C57.9432 47.6 59.0632 47.215 59.8566 46.445C60.6732 45.6517 61.0816 44.6017 61.0816 43.295V40.355H57.9666C56.4032 40.355 55.2016 40.6817 54.3616 41.335C53.5216 41.965 53.1016 42.8633 53.1016 44.03C53.1016 45.22 53.3816 46.1183 53.9416 46.725C54.5249 47.3083 55.3766 47.6 56.4966 47.6ZM69.107 31.85H74.427L80.832 44.17L87.202 31.85H90.317L81.567 49.35H78.382L69.107 31.85ZM98.5463 49.35C96.0497 49.35 94.1713 48.895 92.9113 47.985C91.6747 47.0517 91.0563 45.745 91.0563 44.065C91.0563 42.2917 91.7913 40.9267 93.2613 39.97C94.7313 39.0133 96.8547 38.535 99.6313 38.535H104.216V37.38C104.216 36.0733 103.855 35.07 103.131 34.37C102.408 33.67 101.37 33.32 100.016 33.32C98.6863 33.32 97.6247 33.6583 96.8313 34.335C96.0613 35.0117 95.583 36.0033 95.3963 37.31H91.5463C91.803 35.42 92.7013 33.985 94.2413 33.005C95.7813 32.0017 97.8697 31.5 100.506 31.5C103.4 31.5 105.605 32.0367 107.121 33.11C108.638 34.1833 109.396 35.735 109.396 37.765V43.295C109.396 45.4183 109.571 47.32 109.921 49H105.091C104.858 48.1133 104.695 47.3317 104.601 46.655C103.925 47.6117 103.05 48.3 101.976 48.72C100.926 49.14 99.783 49.35 98.5463 49.35ZM99.6313 47.6C101.078 47.6 102.198 47.215 102.991 46.445C103.808 45.6517 104.216 44.6017 104.216 43.295V40.355H101.101C99.538 40.355 98.3363 40.6817 97.4963 41.335C96.6563 41.965 96.2363 42.8633 96.2363 44.03C96.2363 45.22 96.5163 46.1183 97.0763 46.725C97.6597 47.3083 98.5113 47.6 99.6313 47.6ZM33.8741 79L29.1641 73.1C29.0441 73.1067 28.8608 73.11 28.6141 73.11C27.9541 73.11 27.1808 73.0767 26.2941 73.01V79H24.0741V64.55C25.5875 64.21 27.1508 64.04 28.7641 64.04C30.9575 64.04 32.5841 64.4 33.6441 65.12C34.7041 65.8333 35.2341 66.9733 35.2341 68.54C35.2341 69.6733 34.9141 70.6 34.2741 71.32C33.6408 72.04 32.7008 72.5433 31.4541 72.83L36.4241 79H33.8741ZM26.2941 71.31C26.7475 71.3567 27.1441 71.39 27.4841 71.41C27.8308 71.43 28.2375 71.44 28.7041 71.44C30.2375 71.44 31.3541 71.21 32.0541 70.75C32.7541 70.2833 33.1041 69.5567 33.1041 68.57C33.1041 67.87 32.9575 67.31 32.6641 66.89C32.3775 66.47 31.9275 66.1667 31.3141 65.98C30.7075 65.7933 29.9075 65.7 28.9141 65.7C28.4141 65.7 27.9641 65.72 27.5641 65.76C27.1641 65.8 26.7408 65.86 26.2941 65.94V71.31ZM42.8366 79.2C41.7233 79.2 40.7533 78.99 39.9266 78.57C39.1066 78.15 38.47 77.52 38.0166 76.68C37.57 75.84 37.3466 74.8 37.3466 73.56C37.3466 72.3333 37.5666 71.3033 38.0066 70.47C38.4533 69.63 39.0866 69 39.9066 68.58C40.7266 68.16 41.7033 67.95 42.8366 67.95C44.57 67.95 45.9166 68.4233 46.8766 69.37C47.8366 70.31 48.3166 71.7067 48.3166 73.56C48.3166 74.78 48.09 75.8133 47.6366 76.66C47.1833 77.5 46.5433 78.1333 45.7166 78.56C44.8966 78.9867 43.9366 79.2 42.8366 79.2ZM42.8366 77.44C45.01 77.44 46.0966 76.15 46.0966 73.57C46.0966 72.23 45.8166 71.2533 45.2566 70.64C44.6966 70.02 43.89 69.71 42.8366 69.71C41.7833 69.71 40.9733 70.0167 40.4066 70.63C39.8466 71.2433 39.5666 72.2167 39.5666 73.55C39.5666 76.1433 40.6566 77.44 42.8366 77.44ZM54.8735 67.95C56.0202 67.95 56.9535 68.0867 57.6735 68.36C58.3935 68.6267 58.9335 69.0733 59.2935 69.7C59.6535 70.3267 59.8335 71.18 59.8335 72.26V79H57.9735L57.8135 77.83H57.6935C57.2868 78.2567 56.7735 78.59 56.1535 78.83C55.5335 79.0633 54.8735 79.18 54.1735 79.18C53.3735 79.18 52.6902 79.0567 52.1235 78.81C51.5568 78.5567 51.1268 78.2033 50.8335 77.75C50.5402 77.2967 50.3935 76.7633 50.3935 76.15C50.3935 75.1833 50.7535 74.4367 51.4735 73.91C52.2002 73.3767 53.3535 73.04 54.9335 72.9L57.6535 72.63V72.11C57.6535 71.47 57.5435 70.97 57.3235 70.61C57.1035 70.25 56.7702 69.9967 56.3235 69.85C55.8835 69.7033 55.2968 69.63 54.5635 69.63C54.0568 69.63 53.5068 69.6733 52.9135 69.76C52.3268 69.8467 51.7635 69.9767 51.2235 70.15V68.49C51.7568 68.3167 52.3468 68.1833 52.9935 68.09C53.6468 67.9967 54.2735 67.95 54.8735 67.95ZM54.7635 77.64C55.2968 77.64 55.8135 77.5467 56.3135 77.36C56.8135 77.1667 57.2602 76.88 57.6535 76.5V73.95L55.1035 74.2C54.2168 74.3 53.5835 74.4933 53.2035 74.78C52.8235 75.06 52.6335 75.46 52.6335 75.98C52.6335 76.5067 52.8102 76.9167 53.1635 77.21C53.5168 77.4967 54.0502 77.64 54.7635 77.64ZM66.3157 79.2C64.949 79.2 63.709 79.04 62.5957 78.72V77.11C63.789 77.4433 65.0324 77.61 66.3257 77.61C67.3257 77.61 68.0457 77.4767 68.4857 77.21C68.9257 76.9367 69.1457 76.54 69.1457 76.02C69.1457 75.74 69.0957 75.51 68.9957 75.33C68.8957 75.1433 68.7257 74.99 68.4857 74.87C68.2457 74.7433 67.9157 74.6467 67.4957 74.58L65.5657 74.28C64.4457 74.1 63.6357 73.76 63.1357 73.26C62.6424 72.76 62.3957 72.09 62.3957 71.25C62.3957 70.23 62.8157 69.4267 63.6557 68.84C64.5024 68.2467 65.7924 67.95 67.5257 67.95C68.0724 67.95 68.6157 67.9867 69.1557 68.06C69.7024 68.1267 70.2057 68.2267 70.6657 68.36V69.96C69.6524 69.68 68.609 69.54 67.5357 69.54C66.4357 69.54 65.659 69.6833 65.2057 69.97C64.7524 70.2567 64.5257 70.6533 64.5257 71.16C64.5257 71.54 64.6424 71.85 64.8757 72.09C65.109 72.3233 65.5257 72.4933 66.1257 72.6L68.0557 72.9C69.169 73.0733 69.9857 73.3933 70.5057 73.86C71.0257 74.3267 71.2857 75.0033 71.2857 75.89C71.2857 76.5767 71.099 77.1667 70.7257 77.66C70.359 78.1533 69.8024 78.5333 69.0557 78.8C68.3157 79.0667 67.4024 79.2 66.3157 79.2ZM79.0216 77.38C79.235 77.38 79.4516 77.3667 79.6716 77.34C79.8916 77.3133 80.165 77.2667 80.4916 77.2V78.96C79.8116 79.12 79.135 79.2 78.4616 79.2C77.1216 79.2 76.1016 78.8733 75.4016 78.22C74.7016 77.5667 74.3516 76.58 74.3516 75.26V69.91H72.1816V68.12H74.3516L74.7316 64.2H76.5716V68.12H80.3416V69.91H76.5716V74.85C76.5716 75.75 76.7716 76.3967 77.1716 76.79C77.5716 77.1833 78.1883 77.38 79.0216 77.38ZM91.763 74.22H83.873C83.913 75.0067 84.083 75.6433 84.383 76.13C84.683 76.61 85.133 76.9633 85.733 77.19C86.333 77.4167 87.103 77.53 88.043 77.53C88.9764 77.53 90.0097 77.3867 91.143 77.1V78.75C89.963 79.05 88.8264 79.2 87.733 79.2C85.7064 79.2 84.1864 78.7433 83.173 77.83C82.1664 76.91 81.663 75.4933 81.663 73.58C81.663 72.38 81.8664 71.36 82.273 70.52C82.6797 69.68 83.2664 69.0433 84.033 68.61C84.8064 68.17 85.7364 67.95 86.823 67.95C88.423 67.95 89.6464 68.44 90.493 69.42C91.3397 70.3933 91.763 71.8 91.763 73.64V74.22ZM86.793 69.42C85.8597 69.42 85.1464 69.7033 84.653 70.27C84.1597 70.83 83.8964 71.7 83.863 72.88H89.673C89.6464 71.7 89.393 70.83 88.913 70.27C88.433 69.7033 87.7264 69.42 86.793 69.42ZM94.2652 68.12H96.0952L96.2652 69.51H96.3952C96.7886 69.0367 97.2952 68.6667 97.9152 68.4C98.5419 68.1333 99.1952 68 99.8752 68C100.262 68 100.625 68.0333 100.965 68.1V70.09C100.639 70.03 100.239 70 99.7652 70C99.1786 70 98.5819 70.1133 97.9752 70.34C97.3686 70.5667 96.8719 70.9033 96.4852 71.35V79H94.2652V68.12ZM105.984 79.2C104.617 79.2 103.377 79.04 102.264 78.72V77.11C103.457 77.4433 104.7 77.61 105.994 77.61C106.994 77.61 107.714 77.4767 108.154 77.21C108.594 76.9367 108.814 76.54 108.814 76.02C108.814 75.74 108.764 75.51 108.664 75.33C108.564 75.1433 108.394 74.99 108.154 74.87C107.914 74.7433 107.584 74.6467 107.164 74.58L105.234 74.28C104.114 74.1 103.304 73.76 102.804 73.26C102.31 72.76 102.064 72.09 102.064 71.25C102.064 70.23 102.484 69.4267 103.324 68.84C104.17 68.2467 105.46 67.95 107.194 67.95C107.74 67.95 108.284 67.9867 108.824 68.06C109.37 68.1267 109.874 68.2267 110.334 68.36V69.96C109.32 69.68 108.277 69.54 107.204 69.54C106.104 69.54 105.327 69.6833 104.874 69.97C104.42 70.2567 104.194 70.6533 104.194 71.16C104.194 71.54 104.31 71.85 104.544 72.09C104.777 72.3233 105.194 72.4933 105.794 72.6L107.724 72.9C108.837 73.0733 109.654 73.3933 110.174 73.86C110.694 74.3267 110.954 75.0033 110.954 75.89C110.954 76.5767 110.767 77.1667 110.394 77.66C110.027 78.1533 109.47 78.5333 108.724 78.8C107.984 79.0667 107.07 79.2 105.984 79.2Z" fill="#3D3017"/>
<path d="M27.6302 17.5571C30.6185 16.9169 32.9116 13.231 32.9116 8.77956C32.9116 4.32809 30.6185 0.642238 27.6302 0.00335709C27.5227 -0.019922 27.4239 0.0809539 27.4239 0.210282V17.3501" fill="#3D3017"/>
<path d="M26.3336 17.3501V0.210285C26.3336 0.0796637 26.2348 -0.019919 26.1273 0.0033601C23.139 0.643534 20.8459 4.32938 20.8459 8.78086C20.8459 13.2323 23.1378 16.9182 26.1273 17.5584" fill="#3D3017"/>
<path d="M37.2466 21.6723C40.0998 22.7936 43.9471 20.9597 46.2602 17.2053C48.5733 13.4509 48.5546 9.06798 46.3652 6.86811C46.2865 6.78922 46.1514 6.81896 46.0839 6.92889L37.1803 21.3839" fill="#3D3017"/>
<path d="M36.2613 20.7773L45.1649 6.32234C45.2324 6.21241 45.2012 6.07273 45.0987 6.03264C42.2454 4.91137 38.3981 6.74524 36.085 10.4996C33.7719 14.254 33.7906 18.637 35.98 20.8368" fill="#3D3017"/>
<path d="M16.7548 21.6723C13.9016 22.7936 10.0543 20.9597 7.74115 17.2053C5.42803 13.4509 5.44679 9.06798 7.63612 6.86811C7.71489 6.78922 7.84993 6.81896 7.91745 6.92889L16.8211 21.3839" fill="#3D3017"/>
<path d="M17.7401 20.7773L8.83644 6.32233C8.76892 6.2124 8.80018 6.07272 8.90271 6.03263C11.756 4.91136 15.6033 6.74523 17.9164 10.5009C20.2295 14.2553 20.2107 18.6382 18.0214 20.8381" fill="#3D3017"/>
</svg>
